<svg xmlns="http://www.w3.org/2000/svg" viewBox="0 0 100 100" width="100" height="100">
  <rect width="100" height="100" rx="20" fill="#ECFDF5"/>
  <rect x="10" y="78" width="16" height="6" rx="2" fill="#94A3B8"/>
  <rect x="32" y="78" width="16" height="6" rx="2" fill="#FFFFFF" stroke="#94A3B8" stroke-width="1"/>
  <rect x="54" y="78" width="16" height="6" rx="2" fill="#FFFFFF" stroke="#94A3B8" stroke-width="1"/>
  <rect x="76" y="78" width="16" height="6" rx="2" fill="#94A3B8"/>
  <circle cx="50" cy="24" r="10" fill="#FDE68A" stroke="#D97706" stroke-width="2.5"/>
  <path d="M47 26 Q50 29 53 26" fill="none" stroke="#92400E" stroke-width="1.5" stroke-linecap="round"/>
  <path d="M42 36 L58 36 L56 56 L44 56 Z" fill="#0284C7" stroke="#0369A1" stroke-width="2.5" stroke-linejoin="round"/>
  <path d="M43 38 L34 50" stroke="#FDE68A" stroke-width="4" stroke-linecap="round"/>
  <path d="M57 38 L66 48" stroke="#FDE68A" stroke-width="4" stroke-linecap="round"/>
  <path d="M46 56 L36 78" stroke="#1E293B" stroke-width="4.5" stroke-linecap="round"/>
  <path d="M54 56 L64 76" stroke="#1E293B" stroke-width="4.5" stroke-linecap="round"/>
  <ellipse cx="33" cy="80" rx="5" ry="3" fill="#EF4444"/>
  <ellipse cx="67" cy="78" rx="5" ry="3" fill="#EF4444"/>
  <circle cx="82" cy="22" r="7" fill="#10B981" stroke="#059669" stroke-width="1.5"/>
  <path d="M79 22 L81 24 L85 19" fill="none" stroke="#FFFFFF" stroke-width="2" stroke-linecap="round" stroke-linejoin="round"/>
</svg>
