<svg xmlns="http://www.w3.org/2000/svg" viewBox="0 0 100 100" width="100" height="100">
  <rect width="100" height="100" rx="20" fill="#F0FDF4"/>
  <!-- Meia esquerda -->
  <path d="M30 24 L50 24 L50 56 C50 62 56 66 66 66 L68 76 C68 84 58 86 50 86 C38 86 30 76 30 66 Z" fill="#10B981" stroke="#047857" stroke-width="3" stroke-linejoin="round"/>
  <!-- Calcanhar e ponta -->
  <path d="M30 60 C30 70 38 72 44 70" fill="none" stroke="#6EE7B7" stroke-width="3"/>
  <path d="M60 66 L68 76" stroke="#047857" stroke-width="2"/>
  <!-- Listras da meia -->
  <line x1="32" y1="34" x2="48" y2="34" stroke="#FFFFFF" stroke-width="3"/>
  <line x1="32" y1="42" x2="48" y2="42" stroke="#FBBF24" stroke-width="3"/>
  <line x1="32" y1="50" x2="48" y2="50" stroke="#FFFFFF" stroke-width="3"/>
  <!-- Elástico superior -->
  <rect x="30" y="22" width="20" height="5" rx="1.5" fill="#047857"/>
</svg>
