<svg xmlns="http://www.w3.org/2000/svg" viewBox="0 0 100 100" width="100" height="100">
  <rect width="100" height="100" rx="20" fill="#EFF6FF"/>
  <rect x="22" y="26" width="56" height="62" rx="6" fill="#FFFFFF" stroke="#2563EB" stroke-width="3"/>
  <rect x="36" y="16" width="28" height="12" rx="3" fill="#DBEAFE" stroke="#2563EB" stroke-width="2.5"/>
  <rect x="47" y="19" width="6" height="6" fill="#EF4444"/>
  <rect x="45" y="21" width="10" height="2" fill="#EF4444"/>
  <rect x="30" y="34" width="10" height="10" rx="2" fill="#93C5FD" stroke="#1D4ED8" stroke-width="1.5"/>
  <rect x="60" y="34" width="10" height="10" rx="2" fill="#93C5FD" stroke="#1D4ED8" stroke-width="1.5"/>
  <rect x="30" y="50" width="10" height="10" rx="2" fill="#93C5FD" stroke="#1D4ED8" stroke-width="1.5"/>
  <rect x="60" y="50" width="10" height="10" rx="2" fill="#93C5FD" stroke="#1D4ED8" stroke-width="1.5"/>
  <circle cx="50" cy="47" r="10" fill="#FEE2E2" stroke="#EF4444" stroke-width="1.5"/>
  <rect x="47" y="41" width="6" height="12" rx="1.5" fill="#EF4444"/>
  <rect x="44" y="44" width="12" height="6" rx="1.5" fill="#EF4444"/>
  <rect x="42" y="68" width="16" height="20" rx="2" fill="#3B82F6" stroke="#1D4ED8" stroke-width="2"/>
  <line x1="50" y1="68" x2="50" y2="88" stroke="#FFFFFF" stroke-width="1.5"/>
  <circle cx="47" cy="78" r="1.2" fill="#FFFFFF"/>
  <circle cx="53" cy="78" r="1.2" fill="#FFFFFF"/>
</svg>
